<?xml version="1.0" encoding="utf-8"?>
<!-- Generator: Adobe Illustrator 16.0.4, SVG Export Plug-In . SVG Version: 6.00 Build 0)  -->
<!DOCTYPE svg PUBLIC "-//W3C//DTD SVG 1.1//EN" "http://www.w3.org/Graphics/SVG/1.1/DTD/svg11.dtd">
<svg version="1.1" id="Layer_1" xmlns="http://www.w3.org/2000/svg" xmlns:xlink="http://www.w3.org/1999/xlink" x="0px" y="0px"
	 width="144.918px" height="58.34px" viewBox="0 0 144.918 58.34" enable-background="new 0 0 144.918 58.34" xml:space="preserve">
<g>
	<g>
		<polyline fill="#333333" points="17.45,2.254 16.057,3.729 16.158,6.113 16.387,11.225 18.475,11.512 18.452,11.035 18.133,4.527 
			21.291,4.992 21.217,4.976 24.261,5.429 24.644,11.727 24.669,12.168 26.562,12.321 26.248,7.494 26.102,5.234 24.667,3.4 
			21.34,2.869 21.365,2.874 21.174,2.844 21.34,2.869 21.168,2.838 20.999,2.816 17.486,2.257 17.45,2.254 		"/>
	</g>
	<g>
		<path fill="#333333" d="M45.552,47.234V32.228h3.167l6.214,10.925V32.228h2.782v15.006h-3.107L48.333,36.33v10.904H45.552z"/>
		<path fill="#333333" d="M71.502,42.807h-8.711c0.244,1.002,0.866,1.672,1.868,2.011c0.379,0.135,0.792,0.203,1.239,0.203
			c0.92,0,1.665-0.285,2.233-0.854c0.081-0.081,0.163-0.169,0.244-0.264h2.944c-0.163,0.501-0.46,1.022-0.894,1.563
			c-1.178,1.354-2.667,2.03-4.467,2.03c-1.787,0-3.276-0.608-4.467-1.827c-1.083-1.11-1.624-2.45-1.624-4.021
			c0-1.706,0.602-3.134,1.807-4.284c1.137-1.097,2.511-1.646,4.122-1.646c1.787,0,3.235,0.637,4.345,1.909
			c0.975,1.124,1.462,2.505,1.462,4.143C71.604,42.137,71.57,42.482,71.502,42.807z M62.71,40.431h6.233
			c-0.312-1.326-1.177-2.063-2.599-2.213c-0.162-0.014-0.332-0.021-0.507-0.021c-1.557,0-2.572,0.67-3.046,2.011
			C62.764,40.276,62.737,40.35,62.71,40.431z"/>
		<path fill="#333333" d="M73.715,47.234v-8.792h-1.32v-2.457h1.32v-3.757h2.701v3.757h1.625v2.457h-1.625v8.792H73.715z"/>
		<path fill="#333333" d="M79.807,47.234v-8.792h-1.32v-2.457h1.32v-3.757h2.701v3.757h1.624v2.457h-1.624v8.792H79.807z"/>
		<path fill="#333333" d="M85.492,47.234V32.228h2.701v4.792c0.865-0.866,1.867-1.34,3.004-1.421
			c0.149-0.014,0.312-0.021,0.488-0.021c1.705,0,3.106,0.623,4.203,1.868c0.975,1.124,1.462,2.484,1.462,4.081
			c0,1.53-0.44,2.863-1.319,4c-1.029,1.313-2.417,1.97-4.163,1.97c-1.313,0-2.409-0.372-3.29-1.116
			c-0.203-0.176-0.406-0.372-0.609-0.589v1.441H85.492z M91.299,38.056c-1.164,0-2.051,0.46-2.66,1.38
			c-0.405,0.597-0.608,1.293-0.608,2.092c0,1.286,0.46,2.254,1.381,2.904c0.555,0.393,1.204,0.589,1.949,0.589
			c1.218,0,2.125-0.48,2.721-1.442c0.366-0.582,0.548-1.259,0.548-2.03c0-1.231-0.446-2.187-1.34-2.863
			C92.721,38.266,92.058,38.056,91.299,38.056z"/>
		<path fill="#333333" d="M108.904,35.985v11.249h-2.498v-1.076c-0.785,0.771-1.638,1.205-2.559,1.3l-0.67,0.04
			c-1.516,0-2.66-0.555-3.432-1.665c-0.515-0.758-0.792-1.786-0.832-3.086c-0.014-0.217-0.021-0.46-0.021-0.731v-6.03h2.7v5.503
			c0,1.421,0.184,2.362,0.549,2.822c0.352,0.474,0.879,0.711,1.584,0.711c0.961,0,1.645-0.346,2.051-1.036
			c0.283-0.433,0.426-1.333,0.426-2.7v-5.3H108.904z"/>
		<path fill="#333333" d="M111.482,47.234v-8.792h-1.32v-2.457h1.32v-3.757h2.701v3.757h1.625v2.457h-1.625v8.792H111.482z"/>
		<path fill="#333333" d="M117.168,34.766v-2.538h2.701v2.538H117.168z M117.168,47.234V35.985h2.701v11.249H117.168z"/>
		<path fill="#333333" d="M122.041,47.234V32.228h2.701v9.057l3.594-5.3h3.229l-4.02,5.503l4.67,5.746h-3.635l-3.838-5.259v5.259
			H122.041z"/>
		<path fill="#333333" d="M133.818,47.234V32.228h2.701v9.057l3.594-5.3h3.229l-4.02,5.503l4.67,5.746h-3.635l-3.838-5.259v5.259
			H133.818z"/>
	</g>
	<g>
		<path fill="#333333" d="M8.896,5.548V5.542L7.463,7.587L6.173,6.665L1.707,49.032l7.19,8.398l0,0V5.548L8.896,5.548z"/>
	</g>
	<g>
		<path fill="#333333" d="M45.752,29.713V12.529h3.186v7.418l5.325-7.418H58.1l-6.465,8.441l6.465,8.743h-3.837l-5.325-7.558v7.558
			H45.752z"/>
		<path fill="#333333" d="M64.821,16.529c2.015,0,3.689,0.705,5.022,2.116c1.24,1.302,1.86,2.875,1.86,4.72
			c0,1.814-0.682,3.38-2.046,4.697c-1.349,1.303-2.953,1.954-4.813,1.954c-1.907,0-3.535-0.675-4.883-2.023
			c-1.302-1.317-1.953-2.892-1.953-4.721c0-1.875,0.682-3.473,2.046-4.79C61.387,17.179,62.976,16.529,64.821,16.529z
			 M64.844,19.366c-1.163,0-2.124,0.473-2.883,1.418c-0.558,0.714-0.837,1.527-0.837,2.441c0,1.318,0.488,2.372,1.465,3.163
			c0.666,0.527,1.426,0.79,2.279,0.79c1.193,0,2.163-0.488,2.907-1.465c0.542-0.713,0.814-1.526,0.814-2.441
			c0-1.256-0.473-2.278-1.418-3.069C66.487,19.644,65.712,19.366,64.844,19.366z"/>
		<path fill="#333333" d="M73.448,29.713V16.831h2.837v1.209c0.744-0.883,1.651-1.379,2.721-1.488
			c0.201-0.015,0.41-0.022,0.627-0.022c1.566,0,2.76,0.558,3.582,1.674c0.061,0.108,0.131,0.218,0.209,0.325
			c1.054-1.302,2.434-1.968,4.139-1.999c1.783,0,3.131,0.534,4.047,1.604c0.123,0.14,0.232,0.287,0.325,0.441
			c0.558,0.884,0.837,2.116,0.837,3.697v7.441h-3.093v-7.069c0-1.209-0.194-2.038-0.581-2.488c-0.435-0.526-1.047-0.79-1.838-0.79
			c-1.022,0-1.744,0.41-2.162,1.232c-0.295,0.543-0.441,1.465-0.441,2.767v6.349h-3.094v-7.069c0-1.178-0.178-2-0.534-2.465
			c-0.45-0.542-1.108-0.813-1.977-0.813c-1.07,0-1.798,0.441-2.186,1.325c-0.217,0.558-0.325,1.449-0.325,2.674v6.349H73.448z"/>
		<path fill="#333333" d="M95.562,34.015V16.831h2.837v1.512c1.039-1.209,2.449-1.813,4.232-1.813c2.015,0,3.635,0.721,4.86,2.162
			c1.038,1.24,1.558,2.752,1.558,4.534c0,2.109-0.698,3.814-2.094,5.116l-0.721,0.604c-1.069,0.714-2.278,1.07-3.627,1.07
			c-1.52,0-2.837-0.504-3.953-1.512v5.511H95.562z M102.235,19.366c-1.287,0-2.294,0.512-3.022,1.534
			c-0.497,0.683-0.744,1.465-0.744,2.349c0,1.364,0.503,2.427,1.511,3.187c0.667,0.496,1.435,0.743,2.302,0.743
			c1.225,0,2.193-0.503,2.907-1.511c0.496-0.683,0.744-1.473,0.744-2.372c0-1.349-0.497-2.41-1.488-3.186
			C103.809,19.614,103.072,19.366,102.235,19.366z"/>
		<path fill="#333333" d="M110.909,29.713V12.529h3.093v17.185H110.909z"/>
		<path fill="#333333" d="M129.256,24.644h-9.977c0.279,1.147,0.992,1.915,2.14,2.302c0.434,0.155,0.907,0.232,1.419,0.232
			c1.054,0,1.906-0.325,2.558-0.977c0.093-0.093,0.186-0.193,0.279-0.302h3.371c-0.186,0.573-0.527,1.171-1.022,1.79
			c-1.35,1.551-3.055,2.326-5.116,2.326c-2.047,0-3.752-0.698-5.116-2.094c-1.24-1.271-1.86-2.806-1.86-4.604
			c0-1.953,0.69-3.589,2.07-4.907c1.302-1.255,2.875-1.883,4.72-1.883c2.047,0,3.705,0.729,4.977,2.186
			c1.116,1.287,1.675,2.868,1.675,4.744C129.372,23.876,129.333,24.272,129.256,24.644z M119.187,21.923h7.139
			c-0.356-1.52-1.349-2.364-2.977-2.535c-0.186-0.015-0.38-0.022-0.581-0.022c-1.783,0-2.945,0.767-3.488,2.302
			C119.248,21.746,119.218,21.831,119.187,21.923z"/>
		<path fill="#333333" d="M131.79,29.713V19.644h-1.512v-2.813h1.512v-4.302h3.093v4.302h1.86v2.813h-1.86v10.069H131.79z"/>
		<path fill="#333333" d="M138.766,29.713V19.644h-1.512v-2.813h1.512v-4.302h3.093v4.302h1.86v2.813h-1.86v10.069H138.766z"/>
	</g>
</g>
<g>
	<polygon fill="none" points="18.999,10.55 19.643,0.726 29.92,2.801 29.478,12.125 	"/>
</g>
<g>
	<g>
		<path fill="#1D94C1" d="M125.232,56.812V55.18h1.695v1.632H125.232z"/>
		<path fill="#1D94C1" d="M128.57,56.812v-7.061h1.568v0.675c0.543-0.518,1.135-0.798,1.771-0.841c0.068,0,0.141,0,0.217,0
			c1.002,0,1.736,0.34,2.205,1.02c0.297,0.434,0.463,1.058,0.496,1.874c0.01,0.161,0.014,0.344,0.014,0.548v3.785h-1.695v-3.454
			c0-0.884-0.111-1.474-0.332-1.771c-0.229-0.298-0.568-0.446-1.02-0.446c-0.561,0-0.977,0.217-1.248,0.65
			c-0.18,0.289-0.273,0.799-0.281,1.529c0,0.051,0,0.106,0,0.166v3.326H128.57z"/>
		<path fill="#1D94C1" d="M139.646,49.585c1.105,0,2.021,0.387,2.754,1.16c0.68,0.713,1.02,1.576,1.02,2.587
			c0,0.994-0.375,1.853-1.123,2.574c-0.738,0.714-1.617,1.071-2.637,1.071c-1.047,0-1.938-0.37-2.678-1.109
			c-0.713-0.722-1.07-1.584-1.07-2.587c0-1.028,0.373-1.903,1.121-2.626C137.764,49.942,138.635,49.585,139.646,49.585z
			 M139.66,51.14c-0.639,0-1.166,0.26-1.582,0.777c-0.305,0.392-0.459,0.837-0.459,1.339c0,0.722,0.27,1.3,0.805,1.733
			c0.365,0.289,0.781,0.433,1.248,0.433c0.654,0,1.186-0.268,1.594-0.803c0.297-0.391,0.445-0.837,0.445-1.338
			c0-0.688-0.26-1.249-0.777-1.683C140.561,51.293,140.135,51.14,139.66,51.14z"/>
	</g>
	<g>
		<path fill="#1D94C1" d="M29.615,9.234l0.109-2.302l0.114-2.409l-1.29-1.999l-3.39-0.684l-0.203-0.041l-0.049-0.01L21.149,1.03
			l-1.626,1.509l-0.166,2.537L19.206,7.38L8.894,5.542L8.896,57.43l29.428-8.366V10.786L29.615,9.234z M21.592,3.466l3.236,0.614
			L24.76,4.067l3.123,0.592l-0.215,4.228l-6.341-1.13L21.592,3.466z"/>
	</g>
</g>
<g enable-background="new    ">
	<defs>
		<polygon id="SVGID_1_" enable-background="new    " points="16.517,48.034 15.672,15.435 31.957,13.542 32.579,44.822 		"/>
	</defs>
	<clipPath id="SVGID_2_">
		<use xlink:href="#SVGID_1_"  overflow="visible"/>
	</clipPath>
	<g clip-path="url(#SVGID_2_)">
		<g>
			<defs>
				<polyline id="SVGID_3_" points="16.517,48.034 15.672,15.435 31.998,15.589 32.539,42.818 16.517,48.034 				"/>
			</defs>
			<clipPath id="SVGID_4_">
				<use xlink:href="#SVGID_3_"  overflow="visible"/>
			</clipPath>
			<g clip-path="url(#SVGID_4_)">
				<polyline fill="#FFFFFF" points="16.721,15.445 16.478,46.532 21.352,45.416 21.38,33.059 27.382,44.042 32.072,42.97 
					32.082,42.967 24.91,30.438 32.022,16.842 27.579,16.432 21.441,27.703 21.591,15.893 16.756,15.445 16.721,15.445 				"/>
			</g>
		</g>
	</g>
</g>
</svg>
